<svg width="30" height="29" viewBox="0 0 30 29" fill="none" xmlns="http://www.w3.org/2000/svg">
<path d="M29.074 14.1191C31.0366 12.2225 29.6737 8.81896 26.9145 8.82443H18.5313V4.61812C18.5313 2.07168 16.4596 0 13.9132 0H12.4713L11.6298 5.8899C11.4425 7.20156 10.7252 7.78509 9.70681 9.43973V7.94199H0V28.2382H9.70687V26.0467L14.8204 28.2382H26.9145C29.6751 28.2432 31.0358 24.8392 29.074 22.9435C30.3038 21.7858 30.3034 19.6887 29.074 18.5313C30.3038 17.3735 30.3034 15.2764 29.074 14.1191ZM7.94199 26.4733H1.76489V9.70687H7.94199V26.4733ZM26.9145 15.0015C28.671 15.0745 28.6696 17.5766 26.9145 17.6489H21.1786V19.4137H26.9145C28.671 19.4867 28.6696 21.9888 26.9145 22.0611H21.1786V23.826H26.9145C28.671 23.8989 28.6696 26.401 26.9145 26.4733H15.1827L9.70687 24.1265V12.6213C12.0256 8.92285 13.0925 8.13148 13.3771 6.13945L14.0018 1.76624C15.5342 1.81324 16.7664 3.07455 16.7664 4.61812V10.5893H26.9145C28.671 10.6623 28.6696 13.1643 26.9145 13.2366H21.1786V15.0015H26.9145Z" fill="white"/>
</svg>
